TITLE ""
FILE "2Q_j_1356-1369.mp3" MP3
  TRACK 01 AUDIO
    TITLE "2Q_j_1356-1369_01"
    INDEX 01 00:00:00
  TRACK 02 AUDIO
    TITLE "2Q_j_1356-1369_02"
    INDEX 01 00:00:18
  TRACK 03 AUDIO
    TITLE "2Q_j_1356-1369_03"
    INDEX 01 00:01:57
  TRACK 04 AUDIO
    TITLE "2Q_j_1356-1369_04"
    INDEX 01 00:02:29
  TRACK 05 AUDIO
    TITLE "2Q_j_1356-1369_05"
    INDEX 01 00:03:69
  TRACK 06 AUDIO
    TITLE "2Q_j_1356-1369_06"
    INDEX 01 00:04:39
  TRACK 07 AUDIO
    TITLE "2Q_j_1356-1369_07"
    INDEX 01 00:07:40
  TRACK 08 AUDIO
    TITLE "2Q_j_1356-1369_08"
    INDEX 01 00:08:10
  TRACK 09 AUDIO
    TITLE "2Q_j_1356-1369_09"
    INDEX 01 00:09:29
  TRACK 10 AUDIO
    TITLE "2Q_j_1356-1369_10"
    INDEX 01 00:09:74
  TRACK 11 AUDIO
    TITLE "2Q_j_1356-1369_11"
    INDEX 01 00:12:39
  TRACK 12 AUDIO
    TITLE "2Q_j_1356-1369_12"
    INDEX 01 00:13:09
  TRACK 13 AUDIO
    TITLE "2Q_j_1356-1369_13"
    INDEX 01 00:16:03
  TRACK 14 AUDIO
    TITLE "2Q_j_1356-1369_14"
    INDEX 01 00:16:49
  TRACK 15 AUDIO
    TITLE "2Q_j_1356-1369_15"
    INDEX 01 00:17:64
  TRACK 16 AUDIO
    TITLE "2Q_j_1356-1369_16"
    INDEX 01 00:18:34
  TRACK 17 AUDIO
    TITLE "2Q_j_1356-1369_17"
    INDEX 01 00:24:36
  TRACK 18 AUDIO
    TITLE "2Q_j_1356-1369_18"
    INDEX 01 00:25:06
  TRACK 19 AUDIO
    TITLE "2Q_j_1356-1369_19"
    INDEX 01 00:28:48
  TRACK 20 AUDIO
    TITLE "2Q_j_1356-1369_20"
    INDEX 01 00:29:18
  TRACK 21 AUDIO
    TITLE "2Q_j_1356-1369_21"
    INDEX 01 00:30:60
  TRACK 22 AUDIO
    TITLE "2Q_j_1356-1369_22"
    INDEX 01 00:31:30
  TRACK 23 AUDIO
    TITLE "2Q_j_1356-1369_23"
    INDEX 01 00:33:37
  TRACK 24 AUDIO
    TITLE "2Q_j_1356-1369_24"
    INDEX 01 00:34:07
  TRACK 25 AUDIO
    TITLE "2Q_j_1356-1369_25"
    INDEX 01 00:38:60
  TRACK 26 AUDIO
    TITLE "2Q_j_1356-1369_26"
    INDEX 01 00:39:40
  TRACK 27 AUDIO
    TITLE "2Q_j_1356-1369_27"
    INDEX 01 00:41:64
  TRACK 28 AUDIO
    TITLE "2Q_j_1356-1369_28"
    INDEX 01 00:42:34
  TRACK 29 AUDIO
    TITLE "2Q_j_1356-1369_29"
    INDEX 01 00:45:25
  TRACK 30 AUDIO
    TITLE "2Q_j_1356-1369_30"
    INDEX 01 00:45:70
  TRACK 31 AUDIO
    TITLE "2Q_j_1356-1369_31"
    INDEX 01 00:49:73
  TRACK 32 AUDIO
    TITLE "2Q_j_1356-1369_32"
    INDEX 01 00:50:45
  TRACK 33 AUDIO
    TITLE "2Q_j_1356-1369_33"
    INDEX 01 00:52:44
  TRACK 34 AUDIO
    TITLE "2Q_j_1356-1369_34"
    INDEX 01 00:53:16
  TRACK 35 AUDIO
    TITLE "2Q_j_1356-1369_35"
    INDEX 01 00:55:37
  TRACK 36 AUDIO
    TITLE "2Q_j_1356-1369_36"
    INDEX 01 00:56:05
  TRACK 37 AUDIO
    TITLE "2Q_j_1356-1369_37"
    INDEX 01 00:59:48
  TRACK 38 AUDIO
    TITLE "2Q_j_1356-1369_38"
    INDEX 01 01:00:26
  TRACK 39 AUDIO
    TITLE "2Q_j_1356-1369_39"
    INDEX 01 01:01:59
  TRACK 40 AUDIO
    TITLE "2Q_j_1356-1369_40"
    INDEX 01 01:02:29
  TRACK 41 AUDIO
    TITLE "2Q_j_1356-1369_41"
    INDEX 01 01:04:06
  TRACK 42 AUDIO
    TITLE "2Q_j_1356-1369_42"
    INDEX 01 01:04:51
  TRACK 43 AUDIO
    TITLE "2Q_j_1356-1369_43"
    INDEX 01 01:07:64
  TRACK 44 AUDIO
    TITLE "2Q_j_1356-1369_44"
    INDEX 01 01:08:37
  TRACK 45 AUDIO
    TITLE "2Q_j_1356-1369_45"
    INDEX 01 01:09:70
  TRACK 46 AUDIO
    TITLE "2Q_j_1356-1369_46"
    INDEX 01 01:10:40
  TRACK 47 AUDIO
    TITLE "2Q_j_1356-1369_47"
    INDEX 01 01:12:14
  TRACK 48 AUDIO
    TITLE "2Q_j_1356-1369_48"
    INDEX 01 01:12:59
  TRACK 49 AUDIO
    TITLE "2Q_j_1356-1369_49"
    INDEX 01 01:17:05
  TRACK 50 AUDIO
    TITLE "2Q_j_1356-1369_50"
    INDEX 01 01:17:56
  TRACK 51 AUDIO
    TITLE "2Q_j_1356-1369_51"
    INDEX 01 01:19:63
  TRACK 52 AUDIO
    TITLE "2Q_j_1356-1369_52"
    INDEX 01 01:20:37
  TRACK 53 AUDIO
    TITLE "2Q_j_1356-1369_53"
    INDEX 01 01:22:24
  TRACK 54 AUDIO
    TITLE "2Q_j_1356-1369_54"
    INDEX 01 01:22:69
  TRACK 55 AUDIO
    TITLE "2Q_j_1356-1369_55"
    INDEX 01 01:26:24
  TRACK 56 AUDIO
    TITLE "2Q_j_1356-1369_56"
    INDEX 01 01:26:75
  TRACK 57 AUDIO
    TITLE "2Q_j_1356-1369_57"
    INDEX 01 01:28:13
  TRACK 58 AUDIO
    TITLE "2Q_j_1356-1369_58"
    INDEX 01 01:28:58
  TRACK 59 AUDIO
    TITLE "2Q_j_1356-1369_59"
    INDEX 01 01:32:44
  TRACK 60 AUDIO
    TITLE "2Q_j_1356-1369_60"
    INDEX 01 01:33:14
  TRACK 61 AUDIO
    TITLE "2Q_j_1356-1369_61"
    INDEX 01 01:36:75
  TRACK 62 AUDIO
    TITLE "2Q_j_1356-1369_62"
    INDEX 01 01:37:49
  TRACK 63 AUDIO
    TITLE "2Q_j_1356-1369_63"
    INDEX 01 01:39:07
  TRACK 64 AUDIO
    TITLE "2Q_j_1356-1369_64"
    INDEX 01 01:39:54
  TRACK 65 AUDIO
    TITLE "2Q_j_1356-1369_65"
    INDEX 01 01:41:31
  TRACK 66 AUDIO
    TITLE "2Q_j_1356-1369_66"
    INDEX 01 01:42:01
  TRACK 67 AUDIO
    TITLE "2Q_j_1356-1369_67"
    INDEX 01 01:47:12
  TRACK 68 AUDIO
    TITLE "2Q_j_1356-1369_68"
    INDEX 01 01:47:57
  TRACK 69 AUDIO
    TITLE "2Q_j_1356-1369_69"
    INDEX 01 01:49:27
  TRACK 70 AUDIO
    TITLE "2Q_j_1356-1369_70"
    INDEX 01 01:49:74
  TRACK 71 AUDIO
    TITLE "2Q_j_1356-1369_71"
    INDEX 01 01:51:67
  TRACK 72 AUDIO
    TITLE "2Q_j_1356-1369_72"
    INDEX 01 01:52:35
  TRACK 73 AUDIO
    TITLE "2Q_j_1356-1369_73"
    INDEX 01 01:56:21
  TRACK 74 AUDIO
    TITLE "2Q_j_1356-1369_74"
    INDEX 01 01:56:66
  TRACK 75 AUDIO
    TITLE "2Q_j_1356-1369_75"
    INDEX 01 01:58:75
  TRACK 76 AUDIO
    TITLE "2Q_j_1356-1369_76"
    INDEX 01 01:59:51
  TRACK 77 AUDIO
    TITLE "2Q_j_1356-1369_77"
    INDEX 01 02:04:01
  TRACK 78 AUDIO
    TITLE "2Q_j_1356-1369_78"
    INDEX 01 02:04:46
  TRACK 79 AUDIO
    TITLE "2Q_j_1356-1369_79"
    INDEX 01 02:09:41
  TRACK 80 AUDIO
    TITLE "2Q_j_1356-1369_80"
    INDEX 01 02:10:15
  TRACK 81 AUDIO
    TITLE "2Q_j_1356-1369_81"
    INDEX 01 02:11:65
  TRACK 82 AUDIO
    TITLE "2Q_j_1356-1369_82"
    INDEX 01 02:12:36
  TRACK 83 AUDIO
    TITLE "2Q_j_1356-1369_83"
    INDEX 01 02:16:55
  TRACK 84 AUDIO
    TITLE "2Q_j_1356-1369_84"
    INDEX 01 02:17:25
  TRACK 85 AUDIO
    TITLE "2Q_j_1356-1369_85"
    INDEX 01 02:21:74
